<?xml version="1.0" encoding="iso-8859-1"?>
<!-- Generator: Adobe Illustrator 27.0.0, SVG Export Plug-In . SVG Version: 6.00 Build 0)  -->
<svg version="1.1" id="Layer_1" xmlns="http://www.w3.org/2000/svg" xmlns:xlink="http://www.w3.org/1999/xlink" x="0px" y="0px"
	 viewBox="0 0 2.835 2.067" style="enable-background:new 0 0 2.835 2.067;" xml:space="preserve">
<g>
	<path style="fill:#31A8FF;" d="M0.773,0.003H0.409H0v2.062h0.409V1.399h0.363c0.386,0,0.698-0.313,0.698-0.698
		S1.158,0.003,0.773,0.003z M0.76,1.057h-0.35V0.356h0.35c0.194,0,0.35,0.157,0.35,0.35C1.11,0.9,0.953,1.057,0.76,1.057z"/>
	<path style="fill:#31A8FF;" d="M2.764,0.547c0,0-0.076-0.076-0.426-0.076c-0.312,0-0.696,0.172-0.624,0.563
		C1.79,1.444,2.396,1.399,2.407,1.65c0.008,0.183-0.51,0.145-0.662,0v0.365c0,0,0.853,0.2,1.05-0.213
		C2.939,1.465,2.673,1.3,2.292,1.133S2.224,0.661,2.764,0.889V0.547z"/>
</g>
</svg>
