<?xml version="1.0" encoding="iso-8859-1"?>
<!-- Generator: Adobe Illustrator 27.0.0, SVG Export Plug-In . SVG Version: 6.00 Build 0)  -->
<svg version="1.1" id="Layer_1" xmlns="http://www.w3.org/2000/svg" xmlns:xlink="http://www.w3.org/1999/xlink" x="0px" y="0px"
	 viewBox="0 0 2.835 1.896" style="enable-background:new 0 0 2.835 1.896;" xml:space="preserve">
<g>
	<polygon style="fill:#FF61F6;" points="1.553,0.179 1.147,0.179 0.777,0.732 0.406,0.179 0,0.179 0.563,1.052 0,1.892 0.449,1.892 
		0.777,1.384 1.104,1.892 1.553,1.892 0.991,1.052 	"/>
	<path style="fill:#FF61F6;" d="M2.485,0.004v0.559c0,0-0.189,0-0.189,0c-0.166,0-0.328,0.065-0.448,0.18
		c-0.119,0.114-0.194,0.275-0.2,0.44c-0.006,0.168,0.02,0.346,0.127,0.481c0.08,0.1,0.195,0.163,0.318,0.196
		C2.176,1.882,2.263,1.892,2.35,1.892c0.284,0,0.485-0.032,0.485-0.032V0.563V0.004H2.485z M2.304,0.851h0.18v0.716h-0.18
		c-0.198,0-0.358-0.16-0.358-0.358C1.947,1.011,2.107,0.851,2.304,0.851z"/>
</g>
</svg>
