<?xml version="1.0" encoding="iso-8859-1"?>
<!-- Generator: Adobe Illustrator 27.0.0, SVG Export Plug-In . SVG Version: 6.00 Build 0)  -->
<svg version="1.1" id="Layer_1" xmlns="http://www.w3.org/2000/svg" xmlns:xlink="http://www.w3.org/1999/xlink" x="0px" y="0px"
	 viewBox="0 0 7.706 11.543" style="enable-background:new 0 0 7.706 11.543;" xml:space="preserve">
<g>
	<path style="fill:#FF7262;" d="M5.779,3.855H3.853V0.003h1.926c1.064,0,1.926,0.862,1.926,1.926v0
		C7.706,2.993,6.843,3.855,5.779,3.855z"/>
	<path style="fill:#F24E1E;" d="M1.926,0.003h1.926v3.853H1.926C0.862,3.855,0,2.993,0,1.929v0C0,0.865,0.862,0.003,1.926,0.003z"/>
	<path style="fill:#A259FF;" d="M1.926,3.836h1.926v3.853H1.926C0.862,7.689,0,6.826,0,5.763v0C0,4.699,0.862,3.836,1.926,3.836z"/>
	<path style="fill:#0ACF83;" d="M1.929,7.688h1.926v1.926c0,1.064-0.862,1.926-1.926,1.926h0c-1.064,0-1.926-0.862-1.926-1.926v0
		C0.003,8.551,0.865,7.688,1.929,7.688z"/>
	<circle style="fill:#1ABCFE;" cx="5.774" cy="5.786" r="1.926"/>
</g>
</svg>
